<mxfile host="app.diagrams.net" modified="2020-12-03T06:05:57.299Z" agent="5.0 (Windows)" etag="YFB2_f_12ySkIs4W3dpr" version="13.10.6" type="github">
  <diagram id="sDaHL3oUhYIQM5YOXVi2" name="Page-1">
    <mxGraphModel dx="1038" dy="547" grid="1" gridSize="10" guides="1" tooltips="1" connect="1" arrows="1" fold="1" page="1" pageScale="1" pageWidth="1169" pageHeight="827" math="0" shadow="0">
      <root>
        <mxCell id="0" />
        <mxCell id="1" parent="0" />
        <mxCell id="QtgEVoFr9BnThGwDQ1Jx-1" value="Production - Payment and Collection of Finished Products" style="swimlane;html=1;childLayout=stackLayout;resizeParent=1;resizeParentMax=0;horizontal=1;startSize=20;horizontalStack=0;" vertex="1" parent="1">
          <mxGeometry x="20" y="10" width="1140" height="380" as="geometry" />
        </mxCell>
        <mxCell id="QtgEVoFr9BnThGwDQ1Jx-2" value="Client" style="swimlane;html=1;startSize=20;horizontal=0;" vertex="1" parent="QtgEVoFr9BnThGwDQ1Jx-1">
          <mxGeometry y="20" width="1140" height="120" as="geometry" />
        </mxCell>
        <mxCell id="QtgEVoFr9BnThGwDQ1Jx-3" value="Receptionist" style="swimlane;html=1;startSize=20;horizontal=0;" vertex="1" parent="QtgEVoFr9BnThGwDQ1Jx-1">
          <mxGeometry y="140" width="1140" height="120" as="geometry" />
        </mxCell>
        <mxCell id="QtgEVoFr9BnThGwDQ1Jx-4" value="SLT" style="swimlane;html=1;startSize=20;horizontal=0;" vertex="1" parent="QtgEVoFr9BnThGwDQ1Jx-1">
          <mxGeometry y="260" width="1140" height="120" as="geometry" />
        </mxCell>
      </root>
    </mxGraphModel>
  </diagram>
</mxfile>
